# xmcd CD database file
#
# Track frame offsets:
#	150
#	17465
#	38745
#	57057
#	84565
#	114362
#	142770
#	172090
#	193570
#	212065
#
# Disc length: 2960 seconds
#
# Revision: 0
# Processed by: cddbd v1.5.2PL0 Copyright (c) Steve Scherf et al.
# Submitted via: CDex 1.70beta1
#
DISCID=790b8e0a
DTITLE=Eddie Gomez Quartet Feat. Jeremy Steig - Uptown Music
DYEAR=1998
DGENRE=Jazz
TTITLE0=Illusions
TTITLE1=Dabble Vision
TTITLE2=Never Let Me Go
TTITLE3=You'll Never Believe
TTITLE4=All Blues
TTITLE5=Sweet William
TTITLE6=Solar
TTITLE7=What's New
TTITLE8=Trikings
TTITLE9=Night Fall
EXTD=YEAR: 1998
EXTT0=
EXTT1=
EXTT2=
EXTT3=
EXTT4=
EXTT5=
EXTT6=
EXTT7=
EXTT8=
EXTT9=
PLAYORDER=
